%TF.GenerationSoftware,KiCad,Pcbnew,7.0.1*%
%TF.CreationDate,2024-07-09T13:26:22+08:00*%
%TF.ProjectId,iecadp,69656361-6470-42e6-9b69-6361645f7063,rev?*%
%TF.SameCoordinates,Original*%
%TF.FileFunction,Legend,Top*%
%TF.FilePolarity,Positive*%
%FSLAX46Y46*%
G04 Gerber Fmt 4.6, Leading zero omitted, Abs format (unit mm)*
G04 Created by KiCad (PCBNEW 7.0.1) date 2024-07-09 13:26:22*
%MOMM*%
%LPD*%
G01*
G04 APERTURE LIST*
%ADD10C,0.150000*%
%ADD11C,0.120000*%
G04 APERTURE END LIST*
D10*
%TO.C,J4*%
X115166666Y-66052619D02*
X115166666Y-66766904D01*
X115166666Y-66766904D02*
X115119047Y-66909761D01*
X115119047Y-66909761D02*
X115023809Y-67005000D01*
X115023809Y-67005000D02*
X114880952Y-67052619D01*
X114880952Y-67052619D02*
X114785714Y-67052619D01*
X116071428Y-66385952D02*
X116071428Y-67052619D01*
X115833333Y-66005000D02*
X115595238Y-66719285D01*
X115595238Y-66719285D02*
X116214285Y-66719285D01*
%TO.C,U1*%
X117532619Y-99016904D02*
X118342142Y-99016904D01*
X118342142Y-99016904D02*
X118437380Y-98969285D01*
X118437380Y-98969285D02*
X118485000Y-98921666D01*
X118485000Y-98921666D02*
X118532619Y-98826428D01*
X118532619Y-98826428D02*
X118532619Y-98635952D01*
X118532619Y-98635952D02*
X118485000Y-98540714D01*
X118485000Y-98540714D02*
X118437380Y-98493095D01*
X118437380Y-98493095D02*
X118342142Y-98445476D01*
X118342142Y-98445476D02*
X117532619Y-98445476D01*
X118532619Y-97445476D02*
X118532619Y-98016904D01*
X118532619Y-97731190D02*
X117532619Y-97731190D01*
X117532619Y-97731190D02*
X117675476Y-97826428D01*
X117675476Y-97826428D02*
X117770714Y-97921666D01*
X117770714Y-97921666D02*
X117818333Y-98016904D01*
%TO.C,R1*%
X125633333Y-85837619D02*
X125300000Y-85361428D01*
X125061905Y-85837619D02*
X125061905Y-84837619D01*
X125061905Y-84837619D02*
X125442857Y-84837619D01*
X125442857Y-84837619D02*
X125538095Y-84885238D01*
X125538095Y-84885238D02*
X125585714Y-84932857D01*
X125585714Y-84932857D02*
X125633333Y-85028095D01*
X125633333Y-85028095D02*
X125633333Y-85170952D01*
X125633333Y-85170952D02*
X125585714Y-85266190D01*
X125585714Y-85266190D02*
X125538095Y-85313809D01*
X125538095Y-85313809D02*
X125442857Y-85361428D01*
X125442857Y-85361428D02*
X125061905Y-85361428D01*
X126585714Y-85837619D02*
X126014286Y-85837619D01*
X126300000Y-85837619D02*
X126300000Y-84837619D01*
X126300000Y-84837619D02*
X126204762Y-84980476D01*
X126204762Y-84980476D02*
X126109524Y-85075714D01*
X126109524Y-85075714D02*
X126014286Y-85123333D01*
%TO.C,R4*%
X125433333Y-68637619D02*
X125100000Y-68161428D01*
X124861905Y-68637619D02*
X124861905Y-67637619D01*
X124861905Y-67637619D02*
X125242857Y-67637619D01*
X125242857Y-67637619D02*
X125338095Y-67685238D01*
X125338095Y-67685238D02*
X125385714Y-67732857D01*
X125385714Y-67732857D02*
X125433333Y-67828095D01*
X125433333Y-67828095D02*
X125433333Y-67970952D01*
X125433333Y-67970952D02*
X125385714Y-68066190D01*
X125385714Y-68066190D02*
X125338095Y-68113809D01*
X125338095Y-68113809D02*
X125242857Y-68161428D01*
X125242857Y-68161428D02*
X124861905Y-68161428D01*
X126290476Y-67970952D02*
X126290476Y-68637619D01*
X126052381Y-67590000D02*
X125814286Y-68304285D01*
X125814286Y-68304285D02*
X126433333Y-68304285D01*
%TO.C,J2*%
X117376666Y-63407619D02*
X117376666Y-64121904D01*
X117376666Y-64121904D02*
X117329047Y-64264761D01*
X117329047Y-64264761D02*
X117233809Y-64360000D01*
X117233809Y-64360000D02*
X117090952Y-64407619D01*
X117090952Y-64407619D02*
X116995714Y-64407619D01*
X117805238Y-63502857D02*
X117852857Y-63455238D01*
X117852857Y-63455238D02*
X117948095Y-63407619D01*
X117948095Y-63407619D02*
X118186190Y-63407619D01*
X118186190Y-63407619D02*
X118281428Y-63455238D01*
X118281428Y-63455238D02*
X118329047Y-63502857D01*
X118329047Y-63502857D02*
X118376666Y-63598095D01*
X118376666Y-63598095D02*
X118376666Y-63693333D01*
X118376666Y-63693333D02*
X118329047Y-63836190D01*
X118329047Y-63836190D02*
X117757619Y-64407619D01*
X117757619Y-64407619D02*
X118376666Y-64407619D01*
%TO.C,C1*%
X115762380Y-91116666D02*
X115810000Y-91164285D01*
X115810000Y-91164285D02*
X115857619Y-91307142D01*
X115857619Y-91307142D02*
X115857619Y-91402380D01*
X115857619Y-91402380D02*
X115810000Y-91545237D01*
X115810000Y-91545237D02*
X115714761Y-91640475D01*
X115714761Y-91640475D02*
X115619523Y-91688094D01*
X115619523Y-91688094D02*
X115429047Y-91735713D01*
X115429047Y-91735713D02*
X115286190Y-91735713D01*
X115286190Y-91735713D02*
X115095714Y-91688094D01*
X115095714Y-91688094D02*
X115000476Y-91640475D01*
X115000476Y-91640475D02*
X114905238Y-91545237D01*
X114905238Y-91545237D02*
X114857619Y-91402380D01*
X114857619Y-91402380D02*
X114857619Y-91307142D01*
X114857619Y-91307142D02*
X114905238Y-91164285D01*
X114905238Y-91164285D02*
X114952857Y-91116666D01*
X115857619Y-90164285D02*
X115857619Y-90735713D01*
X115857619Y-90449999D02*
X114857619Y-90449999D01*
X114857619Y-90449999D02*
X115000476Y-90545237D01*
X115000476Y-90545237D02*
X115095714Y-90640475D01*
X115095714Y-90640475D02*
X115143333Y-90735713D01*
%TO.C,J3*%
X134256666Y-84207619D02*
X134256666Y-84921904D01*
X134256666Y-84921904D02*
X134209047Y-85064761D01*
X134209047Y-85064761D02*
X134113809Y-85160000D01*
X134113809Y-85160000D02*
X133970952Y-85207619D01*
X133970952Y-85207619D02*
X133875714Y-85207619D01*
X134637619Y-84207619D02*
X135256666Y-84207619D01*
X135256666Y-84207619D02*
X134923333Y-84588571D01*
X134923333Y-84588571D02*
X135066190Y-84588571D01*
X135066190Y-84588571D02*
X135161428Y-84636190D01*
X135161428Y-84636190D02*
X135209047Y-84683809D01*
X135209047Y-84683809D02*
X135256666Y-84779047D01*
X135256666Y-84779047D02*
X135256666Y-85017142D01*
X135256666Y-85017142D02*
X135209047Y-85112380D01*
X135209047Y-85112380D02*
X135161428Y-85160000D01*
X135161428Y-85160000D02*
X135066190Y-85207619D01*
X135066190Y-85207619D02*
X134780476Y-85207619D01*
X134780476Y-85207619D02*
X134685238Y-85160000D01*
X134685238Y-85160000D02*
X134637619Y-85112380D01*
%TO.C,R3*%
X125453333Y-74337619D02*
X125120000Y-73861428D01*
X124881905Y-74337619D02*
X124881905Y-73337619D01*
X124881905Y-73337619D02*
X125262857Y-73337619D01*
X125262857Y-73337619D02*
X125358095Y-73385238D01*
X125358095Y-73385238D02*
X125405714Y-73432857D01*
X125405714Y-73432857D02*
X125453333Y-73528095D01*
X125453333Y-73528095D02*
X125453333Y-73670952D01*
X125453333Y-73670952D02*
X125405714Y-73766190D01*
X125405714Y-73766190D02*
X125358095Y-73813809D01*
X125358095Y-73813809D02*
X125262857Y-73861428D01*
X125262857Y-73861428D02*
X124881905Y-73861428D01*
X125786667Y-73337619D02*
X126405714Y-73337619D01*
X126405714Y-73337619D02*
X126072381Y-73718571D01*
X126072381Y-73718571D02*
X126215238Y-73718571D01*
X126215238Y-73718571D02*
X126310476Y-73766190D01*
X126310476Y-73766190D02*
X126358095Y-73813809D01*
X126358095Y-73813809D02*
X126405714Y-73909047D01*
X126405714Y-73909047D02*
X126405714Y-74147142D01*
X126405714Y-74147142D02*
X126358095Y-74242380D01*
X126358095Y-74242380D02*
X126310476Y-74290000D01*
X126310476Y-74290000D02*
X126215238Y-74337619D01*
X126215238Y-74337619D02*
X125929524Y-74337619D01*
X125929524Y-74337619D02*
X125834286Y-74290000D01*
X125834286Y-74290000D02*
X125786667Y-74242380D01*
%TO.C,R2*%
X125533333Y-79837619D02*
X125200000Y-79361428D01*
X124961905Y-79837619D02*
X124961905Y-78837619D01*
X124961905Y-78837619D02*
X125342857Y-78837619D01*
X125342857Y-78837619D02*
X125438095Y-78885238D01*
X125438095Y-78885238D02*
X125485714Y-78932857D01*
X125485714Y-78932857D02*
X125533333Y-79028095D01*
X125533333Y-79028095D02*
X125533333Y-79170952D01*
X125533333Y-79170952D02*
X125485714Y-79266190D01*
X125485714Y-79266190D02*
X125438095Y-79313809D01*
X125438095Y-79313809D02*
X125342857Y-79361428D01*
X125342857Y-79361428D02*
X124961905Y-79361428D01*
X125914286Y-78932857D02*
X125961905Y-78885238D01*
X125961905Y-78885238D02*
X126057143Y-78837619D01*
X126057143Y-78837619D02*
X126295238Y-78837619D01*
X126295238Y-78837619D02*
X126390476Y-78885238D01*
X126390476Y-78885238D02*
X126438095Y-78932857D01*
X126438095Y-78932857D02*
X126485714Y-79028095D01*
X126485714Y-79028095D02*
X126485714Y-79123333D01*
X126485714Y-79123333D02*
X126438095Y-79266190D01*
X126438095Y-79266190D02*
X125866667Y-79837619D01*
X125866667Y-79837619D02*
X126485714Y-79837619D01*
%TO.C,J1*%
X142956666Y-60927619D02*
X142956666Y-61641904D01*
X142956666Y-61641904D02*
X142909047Y-61784761D01*
X142909047Y-61784761D02*
X142813809Y-61880000D01*
X142813809Y-61880000D02*
X142670952Y-61927619D01*
X142670952Y-61927619D02*
X142575714Y-61927619D01*
X143956666Y-61927619D02*
X143385238Y-61927619D01*
X143670952Y-61927619D02*
X143670952Y-60927619D01*
X143670952Y-60927619D02*
X143575714Y-61070476D01*
X143575714Y-61070476D02*
X143480476Y-61165714D01*
X143480476Y-61165714D02*
X143385238Y-61213333D01*
D11*
%TO.C,J4*%
X114170000Y-70190000D02*
X116830000Y-70190000D01*
X114170000Y-88030000D02*
X116830000Y-88030000D01*
X114170000Y-70190000D02*
X114170000Y-88030000D01*
X114170000Y-68920000D02*
X114170000Y-67590000D01*
X116830000Y-70190000D02*
X116830000Y-88030000D01*
X114170000Y-67590000D02*
X115500000Y-67590000D01*
%TO.C,U1*%
X119010000Y-103395000D02*
X137030000Y-103395000D01*
X137030000Y-103395000D02*
X137030000Y-93115000D01*
X119070000Y-100905000D02*
X136970000Y-100905000D01*
X136970000Y-100905000D02*
X136970000Y-95605000D01*
X119070000Y-99255000D02*
X119070000Y-100905000D01*
X119070000Y-95605000D02*
X119070000Y-97255000D01*
X136970000Y-95605000D02*
X119070000Y-95605000D01*
X119010000Y-93115000D02*
X119010000Y-103395000D01*
X137030000Y-93115000D02*
X119010000Y-93115000D01*
X119070000Y-99255000D02*
G75*
G03*
X119070000Y-97255000I0J1000000D01*
G01*
%TO.C,R1*%
X121760000Y-87745000D02*
X122530000Y-87745000D01*
X122530000Y-86375000D02*
X122530000Y-89115000D01*
X122530000Y-89115000D02*
X129070000Y-89115000D01*
X129070000Y-86375000D02*
X122530000Y-86375000D01*
X129070000Y-89115000D02*
X129070000Y-86375000D01*
X129840000Y-87745000D02*
X129070000Y-87745000D01*
%TO.C,R4*%
X121560000Y-70545000D02*
X122330000Y-70545000D01*
X122330000Y-69175000D02*
X122330000Y-71915000D01*
X122330000Y-71915000D02*
X128870000Y-71915000D01*
X128870000Y-69175000D02*
X122330000Y-69175000D01*
X128870000Y-71915000D02*
X128870000Y-69175000D01*
X129640000Y-70545000D02*
X128870000Y-70545000D01*
%TO.C,J2*%
X118710000Y-65275000D02*
X118710000Y-63945000D01*
X120040000Y-65275000D02*
X118710000Y-65275000D01*
X121310000Y-65275000D02*
X134070000Y-65275000D01*
X121310000Y-65275000D02*
X121310000Y-62615000D01*
X134070000Y-65275000D02*
X134070000Y-62615000D01*
X121310000Y-62615000D02*
X134070000Y-62615000D01*
%TO.C,C1*%
X117221000Y-94030000D02*
X116555000Y-94030000D01*
X117221000Y-94030000D02*
X117221000Y-99370000D01*
X114445000Y-94030000D02*
X113779000Y-94030000D01*
X113779000Y-94030000D02*
X113779000Y-99370000D01*
X117221000Y-99370000D02*
X116555000Y-99370000D01*
X114445000Y-99370000D02*
X113779000Y-99370000D01*
%TO.C,J3*%
X134765000Y-86215000D02*
X136095000Y-86215000D01*
X134765000Y-87545000D02*
X134765000Y-86215000D01*
X134765000Y-88815000D02*
X134765000Y-88875000D01*
X134765000Y-88815000D02*
X137425000Y-88815000D01*
X134765000Y-88875000D02*
X137425000Y-88875000D01*
X137425000Y-88815000D02*
X137425000Y-88875000D01*
%TO.C,R3*%
X121580000Y-76245000D02*
X122350000Y-76245000D01*
X122350000Y-74875000D02*
X122350000Y-77615000D01*
X122350000Y-77615000D02*
X128890000Y-77615000D01*
X128890000Y-74875000D02*
X122350000Y-74875000D01*
X128890000Y-77615000D02*
X128890000Y-74875000D01*
X129660000Y-76245000D02*
X128890000Y-76245000D01*
%TO.C,R2*%
X121660000Y-81745000D02*
X122430000Y-81745000D01*
X122430000Y-80375000D02*
X122430000Y-83115000D01*
X122430000Y-83115000D02*
X128970000Y-83115000D01*
X128970000Y-80375000D02*
X122430000Y-80375000D01*
X128970000Y-83115000D02*
X128970000Y-80375000D01*
X129740000Y-81745000D02*
X128970000Y-81745000D01*
%TO.C,J1*%
X140690000Y-62465000D02*
X142020000Y-62465000D01*
X140690000Y-63795000D02*
X140690000Y-62465000D01*
X140690000Y-65065000D02*
X140690000Y-85445000D01*
X140690000Y-65065000D02*
X143290000Y-65065000D01*
X140690000Y-85445000D02*
X145890000Y-85445000D01*
X143290000Y-62465000D02*
X145890000Y-62465000D01*
X143290000Y-65065000D02*
X143290000Y-62465000D01*
X145890000Y-62465000D02*
X145890000Y-85445000D01*
%TD*%
M02*
