%TF.GenerationSoftware,KiCad,Pcbnew,7.0.1*%
%TF.CreationDate,2024-07-09T13:26:22+08:00*%
%TF.ProjectId,iecadp,69656361-6470-42e6-9b69-6361645f7063,rev?*%
%TF.SameCoordinates,Original*%
%TF.FileFunction,Soldermask,Bot*%
%TF.FilePolarity,Negative*%
%FSLAX46Y46*%
G04 Gerber Fmt 4.6, Leading zero omitted, Abs format (unit mm)*
G04 Created by KiCad (PCBNEW 7.0.1) date 2024-07-09 13:26:22*
%MOMM*%
%LPD*%
G01*
G04 APERTURE LIST*
%ADD10R,1.700000X1.700000*%
%ADD11O,1.700000X1.700000*%
%ADD12R,1.600000X1.600000*%
%ADD13O,1.600000X1.600000*%
%ADD14C,1.600000*%
G04 APERTURE END LIST*
D10*
%TO.C,J4*%
X115500000Y-68920000D03*
D11*
X115500000Y-71460000D03*
X115500000Y-74000000D03*
X115500000Y-76540000D03*
X115500000Y-79080000D03*
X115500000Y-81620000D03*
X115500000Y-84160000D03*
X115500000Y-86700000D03*
%TD*%
D12*
%TO.C,U1*%
X120400000Y-102065000D03*
D13*
X122940000Y-102065000D03*
X125480000Y-102065000D03*
X128020000Y-102065000D03*
X130560000Y-102065000D03*
X133100000Y-102065000D03*
X135640000Y-102065000D03*
X135640000Y-94445000D03*
X133100000Y-94445000D03*
X130560000Y-94445000D03*
X128020000Y-94445000D03*
X125480000Y-94445000D03*
X122940000Y-94445000D03*
X120400000Y-94445000D03*
%TD*%
D14*
%TO.C,R1*%
X120720000Y-87745000D03*
D13*
X130880000Y-87745000D03*
%TD*%
D14*
%TO.C,R4*%
X120520000Y-70545000D03*
D13*
X130680000Y-70545000D03*
%TD*%
D10*
%TO.C,J2*%
X120040000Y-63945000D03*
D11*
X122580000Y-63945000D03*
X125120000Y-63945000D03*
X127660000Y-63945000D03*
X130200000Y-63945000D03*
X132740000Y-63945000D03*
%TD*%
D14*
%TO.C,C1*%
X115500000Y-94200000D03*
X115500000Y-99200000D03*
%TD*%
D10*
%TO.C,J3*%
X136095000Y-87545000D03*
%TD*%
D14*
%TO.C,R3*%
X120540000Y-76245000D03*
D13*
X130700000Y-76245000D03*
%TD*%
D14*
%TO.C,R2*%
X120620000Y-81745000D03*
D13*
X130780000Y-81745000D03*
%TD*%
D10*
%TO.C,J1*%
X142020000Y-63795000D03*
D11*
X144560000Y-63795000D03*
X142020000Y-66335000D03*
X144560000Y-66335000D03*
X142020000Y-68875000D03*
X144560000Y-68875000D03*
X142020000Y-71415000D03*
X144560000Y-71415000D03*
X142020000Y-73955000D03*
X144560000Y-73955000D03*
X142020000Y-76495000D03*
X144560000Y-76495000D03*
X142020000Y-79035000D03*
X144560000Y-79035000D03*
X142020000Y-81575000D03*
X144560000Y-81575000D03*
X142020000Y-84115000D03*
X144560000Y-84115000D03*
%TD*%
M02*
