M48
; DRILL file {KiCad 7.0.1} date Tue Jul  9 13:26:38 2024
; FORMAT={-:-/ absolute / inch / decimal}
; #@! TF.CreationDate,2024-07-09T13:26:38+08:00
; #@! TF.GenerationSoftware,Kicad,Pcbnew,7.0.1
; #@! TF.FileFunction,Plated,1,2,PTH
FMAT,2
INCH
; #@! TA.AperFunction,Plated,PTH,ViaDrill
T1C0.0157
; #@! TA.AperFunction,Plated,PTH,ComponentDrill
T2C0.0315
; #@! TA.AperFunction,Plated,PTH,ComponentDrill
T3C0.0394
%
G90
G05
T1
X4.3307Y-3.0709
X4.3307Y-4.252
X5.2636Y-3.1238
X5.2636Y-3.2695
X5.4724Y-2.7559
X5.4724Y-3.0315
X5.8268Y-2.9134
X5.8268Y-4.252
T2
X4.5472Y-3.7087
X4.5472Y-3.9055
X4.7402Y-3.7183
X4.7402Y-4.0183
X4.7449Y-2.7774
X4.7457Y-3.0018
X4.7488Y-3.2183
X4.7528Y-3.4545
X4.8402Y-3.7183
X4.8402Y-4.0183
X4.9402Y-3.7183
X4.9402Y-4.0183
X5.0402Y-3.7183
X5.0402Y-4.0183
X5.1402Y-3.7183
X5.1402Y-4.0183
X5.1449Y-2.7774
X5.1457Y-3.0018
X5.1488Y-3.2183
X5.1528Y-3.4545
X5.2402Y-3.7183
X5.2402Y-4.0183
X5.3402Y-3.7183
X5.3402Y-4.0183
T3
X4.5472Y-2.7134
X4.5472Y-2.8134
X4.5472Y-2.9134
X4.5472Y-3.0134
X4.5472Y-3.1134
X4.5472Y-3.2134
X4.5472Y-3.3134
X4.5472Y-3.4134
X4.726Y-2.5175
X4.826Y-2.5175
X4.926Y-2.5175
X5.026Y-2.5175
X5.126Y-2.5175
X5.226Y-2.5175
X5.3581Y-3.4467
X5.5913Y-2.5116
X5.5913Y-2.6116
X5.5913Y-2.7116
X5.5913Y-2.8116
X5.5913Y-2.9116
X5.5913Y-3.0116
X5.5913Y-3.1116
X5.5913Y-3.2116
X5.5913Y-3.3116
X5.6913Y-2.5116
X5.6913Y-2.6116
X5.6913Y-2.7116
X5.6913Y-2.8116
X5.6913Y-2.9116
X5.6913Y-3.0116
X5.6913Y-3.1116
X5.6913Y-3.2116
X5.6913Y-3.3116
T0
M30
